<svg enable-background="new 0 0 1190.3 411.6" shape-rendering="geometricPrecision" viewBox="0 0 1190.3 411.6" xmlns="http://www.w3.org/2000/svg"><g fill="#fff"><path d="m0 5.8v57h143.7l-143.7 171.3v32.7h259v-57h-148.5l148.5-177v-27z"/><path d="m364.3 5.7c-38.1 0-68.9 30.9-68.9 68.9v123.1c0 38.1 30.9 68.9 68.9 68.9h190.1v-57h-167.5c-12.4 0-22.5-10.1-22.5-22.5v-22.5h145v-57h-145v-22.4c0-12.4 10.1-22.5 22.5-22.5h167.5v-57z"/><path d="m786.6 164.7c38.1 0 68.9-30.9 68.9-68.9v-21.2c0-38.1-30.9-68.9-68.9-68.9h-184.8-.4v261h69v-102h26.3l85.6 102h89.9zm-116.2-57v-45h93.6c12.4 0 22.5 10.1 22.5 22.5 0 12.4-10.1 22.5-22.5 22.5z"/><path d="m1038.1 0c-109.4 0-148.2 35.6-148.2 136 0 100.7 38.8 136.5 148.2 136.5s148.2-35.7 148.2-136.5c0-100.4-38.8-136-148.2-136zm0 215.5c-77.8 0-77.8-38.6-77.8-79.4 0-40.7 0-79.2 77.8-79.2s77.8 38.5 77.8 79.2c0 40.8 0 79.4-77.8 79.4z"/><path d="m21.7 338.4 14 52 14.1-52h21.4v71.5h-13.9v-52.2l-15.3 52.2h-12.8l-15.2-52.2v52.2h-14v-71.5z"/><path d="m170.9 374.6c0 11.7-4.5 22.8-12 29.4-5.7 5-13.2 7.6-21.8 7.6-8.8 0-15.9-2.6-21.6-7.6-7.7-6.9-12-17.6-12-29.7 0-11 4.7-22.4 11.8-28.7 5.6-5 13.7-7.9 21.9-7.9 19.8-.1 33.7 15.1 33.7 36.9zm-52.3-.3c0 14.7 7.1 23.7 18.5 23.7 5.3 0 9.9-1.9 13.2-5.7 3.8-4.1 5.5-9.9 5.5-17.9 0-7.5-1.7-13.6-4.9-17.3-3.1-3.6-8.4-5.9-13.5-5.9-11.2-0-18.8 9.4-18.8 23.1z"/><path d="m267 338.4v13.8h-20.7v57.7h-15.1v-57.7h-20.5v-13.8z"/><path d="m374.1 374.6c0 11.7-4.5 22.8-12 29.4-5.7 5-13.2 7.6-21.8 7.6-8.8 0-15.9-2.6-21.6-7.6-7.7-6.9-12-17.6-12-29.7 0-11 4.7-22.4 11.8-28.7 5.6-5 13.7-7.9 21.9-7.9 19.8-.1 33.7 15.1 33.7 36.9zm-52.3-.3c0 14.7 7.1 23.7 18.5 23.7 5.3 0 9.9-1.9 13.2-5.7 3.8-4.1 5.5-9.9 5.5-17.9 0-7.5-1.7-13.6-4.9-17.3-3.1-3.6-8.4-5.9-13.5-5.9-11.2-0-18.8 9.4-18.8 23.1z"/><path d="m442.4 338.4c10.1 0 13.5.8 17.6 3.8 5.4 3.8 8.7 10.6 8.7 17.5 0 7.1-2.9 12.5-9.2 17.1 6 1.3 8.1 4.6 8.1 12.5v11.8c0 3.8.8 5.4 4.1 8.8h-13.4c-2.3 0-3-.3-4.1-1.5-1.4-1.6-1.5-2-1.5-7.6v-9.1c0-5-3.3-8-8.9-8h-16.4v26.3h-15v-71.5zm-15 32h16.2c5.6 0 9.4-3.8 9.4-9.2 0-5.5-3.9-9.2-9.4-9.2h-16.2z"/><path d="m574.9 384.8c-.2 7.7-2.7 13.3-8 18.2-5.8 5.4-13.4 8.1-21.9 8.1-20 0-32.8-13.9-32.8-35.8 0-12 4.3-23 11.3-29.5 5.7-5 13.7-7.9 22.4-7.9 11.1 0 20.5 4.1 25 11.1 2.6 3.9 4.1 8.6 4.1 13v1h-15.1c-.5-7.2-6-11.7-14-11.7-11.7 0-18.2 8.5-18.2 23.7 0 13.9 7 22.5 18.2 22.5 8.5 0 14-5 14-12.8z"/><path d="m631.1 338.4 14.4 28.4 13.8-28.4h17.1l-23.7 44.7v26.8h-15.1v-26.8l-23.7-44.7z"/><path d="m778.1 384.8c-.2 7.7-2.7 13.3-8 18.2-5.8 5.4-13.4 8.1-21.9 8.1-20 0-32.8-13.9-32.8-35.8 0-12 4.3-23 11.3-29.5 5.7-5 13.7-7.9 22.4-7.9 11.1 0 20.5 4.1 25 11.1 2.6 3.9 4.1 8.6 4.1 13v1h-15.2c-.5-7.2-6-11.7-14-11.7-11.7 0-18.2 8.5-18.2 23.7 0 13.9 7 22.5 18.2 22.5 8.5 0 14-5 14-12.8z"/><path d="m838.4 338.4v58.1h34.8v13.4h-49.8v-71.5z"/><path d="m974.7 338.4v13.4h-36.7v13.7h32.4v13.5h-32.4v17.1h38.8v13.7h-53.8v-71.5z"/><path d="m1037.5 387.2c.5 7.2 5.8 11 14.8 11 8.9 0 13.6-2.8 13.6-7.9 0-3.6-2.5-5.7-8.4-7.3l-12.8-3.4c-6.4-1.7-11.3-3.8-13.9-5.7-3.9-2.8-6.4-8.6-6.4-14.6 0-5.9 2.3-11.3 6.3-15.2 4.8-4.8 11.6-7.1 21.1-7.1 17.3 0 25.9 7.8 26.7 23.9h-15.1c-.2-7.1-4.5-10.9-12.2-10.9-7 0-11.7 3.3-11.7 8 0 4 2.5 6.1 8.4 7.5l8.7 2.1c7.2 1.7 14.5 4.4 17.5 6.4 4.1 2.7 6.6 8.4 6.6 14.4 0 13.9-11.3 22.9-28.6 22.9-11.6 0-21.1-3.9-25.7-10.5-2.7-3.9-3.9-7.8-4.1-13.7h15.2z"/><path d="m1190.3 374.2c0 20.6-16.6 37.3-37.1 37.3s-37.2-16.8-37.2-37.3c0-20.9 16.6-37.4 37.7-37.4 19.9 0 36.6 16.9 36.6 37.4zm-63.5 0c0 14.8 11.9 27.1 26.3 27.1s26.2-12.2 26.2-27.1c0-14.8-11.7-27.2-25.9-27.2-14.8 0-26.6 12-26.6 27.2zm27.3-17.6c3.7 0 5.7.4 7.6 1.5 3 1.7 4.6 4.6 4.6 8.1 0 3.8-1.7 6.6-5 8.2 3.5 1.5 4.6 3.9 4.9 11 .1 1.9.4 3.7.8 5h-7.5c-.4-.9-.5-1.9-.8-4.7-.5-7.4-1.4-8.4-7.4-8.4h-2.8v13.1h-7.7v-33.7h13.3zm-5.8 15h3.8c4.5 0 6.5-1.3 6.5-4.5 0-3.1-1.9-4.4-6.1-4.4h-4.2z"/></g></svg>